<?xml version="1.0" standalone="no"?>
<!DOCTYPE svg PUBLIC "-//W3C//DTD SVG 20010904//EN"
 "http://www.w3.org/TR/2001/REC-SVG-20010904/DTD/svg10.dtd">
<svg version="1.0" xmlns="http://www.w3.org/2000/svg"
 width="864.000000pt" height="1184.000000pt" viewBox="0 0 864.000000 1184.000000"
 preserveAspectRatio="xMidYMid meet">

<g transform="translate(0.000000,1184.000000) scale(0.100000,-0.100000)"
fill="#000000" stroke="none">
<path d="M0 5920 l0 -5920 4320 0 4320 0 0 5920 0 5920 -4320 0 -4320 0 0
-5920z m4205 2389 c-3 -17 -1 -19 18 -12 27 9 63 9 102 -1 22 -6 26 -5 15 3
-11 8 -12 11 -2 11 7 0 21 -7 29 -16 13 -12 28 -15 64 -10 34 5 49 3 52 -6 4
-10 8 -10 16 2 7 10 11 11 11 3 0 -7 3 -12 8 -12 23 4 42 -3 42 -14 0 -8 12
-20 28 -28 15 -8 31 -20 35 -26 4 -7 14 -13 22 -13 9 0 12 -6 8 -16 -3 -9 0
-20 8 -25 12 -8 12 -11 -1 -19 -13 -8 -8 -14 11 -12 3 0 10 -13 16 -29 6 -16
8 -27 3 -24 -5 3 -12 0 -16 -6 -4 -8 -3 -9 4 -5 6 4 18 -5 26 -21 8 -15 15
-22 16 -15 0 24 15 12 15 -13 0 -14 -6 -25 -14 -25 -7 0 -11 -6 -8 -14 3 -7 0
-19 -6 -25 -10 -10 1 -16 26 -12 4 0 7 -4 7 -10 0 -6 -6 -9 -13 -6 -16 6 -40
-40 -25 -49 6 -4 14 -1 18 5 4 7 7 -8 6 -33 -1 -25 -4 -46 -8 -46 -5 0 -8 -7
-8 -15 0 -8 5 -15 12 -15 9 0 9 -3 1 -11 -9 -9 -16 -7 -29 5 -9 9 -19 14 -22
11 -4 -3 0 -10 7 -14 7 -5 10 -14 7 -20 -4 -6 -12 -9 -18 -5 -5 3 -2 -9 8 -27
16 -32 16 -33 -1 -19 -15 13 -19 12 -31 -4 -9 -13 -10 -24 -3 -37 10 -20 -4
-28 -16 -9 -12 20 -21 9 -17 -20 2 -16 8 -30 13 -30 5 0 9 -5 9 -10 0 -7 -6
-7 -18 -1 -11 6 -24 6 -33 0 -13 -8 -12 -10 11 -13 18 -2 11 -21 -9 -22 -30
-2 -53 -13 -47 -23 7 -10 -22 -25 -43 -22 -7 1 -10 -2 -6 -8 3 -6 1 -11 -6
-11 -7 0 -9 -3 -6 -7 9 -9 -22 -43 -40 -43 -7 0 -13 -4 -13 -9 0 -5 -10 -9
-22 -9 -13 0 -40 -1 -61 -2 -21 -1 -43 3 -50 8 -6 6 -23 10 -37 10 -30 0 -50
5 -69 16 -16 10 -199 12 -251 2 -19 -3 -29 -3 -22 0 6 3 12 9 12 14 0 5 -28 1
-62 -7 -35 -9 -79 -17 -98 -18 -19 -2 -47 -8 -62 -14 -15 -6 -36 -8 -45 -5
-14 5 -15 4 -4 -4 11 -8 10 -12 -7 -21 -27 -14 -35 -14 -27 2 4 6 0 4 -8 -5
-8 -10 -26 -18 -41 -18 -14 0 -26 -4 -26 -10 0 -5 7 -6 17 -3 11 4 14 3 9 -5
-4 -7 -12 -12 -18 -12 -6 0 -21 -8 -32 -17 -20 -17 -20 -17 -7 0 9 11 10 17 2
17 -6 0 -11 -4 -11 -10 0 -16 -42 -50 -54 -43 -6 3 -8 2 -3 -2 4 -5 -3 -19
-15 -32 -25 -27 -19 -29 22 -8 17 9 32 15 35 14 14 -2 65 14 65 21 0 4 11 11
25 14 14 4 25 12 25 19 0 8 4 7 10 -3 5 -8 10 -10 10 -5 0 13 171 10 197 -4
11 -5 24 -7 28 -3 5 4 5 1 1 -5 -4 -7 -2 -13 4 -13 6 0 8 -5 5 -10 -3 -6 4
-15 17 -20 23 -10 23 -10 -3 -7 -21 3 -25 0 -21 -15 2 -10 -1 -25 -8 -33 -11
-13 -8 -15 14 -15 16 0 26 -5 26 -15 0 -8 5 -15 10 -15 6 0 10 4 10 8 0 4 14
9 30 10 17 1 30 -2 30 -8 0 -6 15 -9 36 -7 27 3 34 1 30 -9 -3 -8 1 -15 9 -15
8 -1 21 -2 28 -3 16 -2 10 -48 -9 -62 -8 -6 -14 -16 -14 -23 0 -6 -10 -11 -23
-11 -34 0 -38 -9 -17 -33 11 -11 19 -22 17 -23 -1 -1 -65 -23 -142 -49 -188
-62 -317 -114 -332 -133 -17 -21 -16 -32 2 -32 8 0 15 -7 15 -15 0 -11 5 -12
25 -5 14 5 36 9 48 9 12 0 40 4 62 10 27 7 43 7 52 0 7 -6 17 -8 22 -4 6 3 24
-1 40 -10 17 -8 38 -15 48 -15 12 1 7 7 -15 18 -33 18 -34 32 -1 32 10 0 28
-14 40 -32 13 -17 18 -29 13 -25 -6 3 -15 -3 -22 -13 -10 -17 -9 -18 6 -13 14
6 15 4 4 -9 -11 -14 -9 -17 17 -23 43 -9 48 -24 11 -31 -74 -15 -36 -38 80
-48 41 -3 85 -9 98 -12 12 -3 22 -2 22 2 0 5 11 9 24 9 16 0 22 -5 19 -15 -3
-11 -1 -11 10 2 8 10 23 16 35 13 14 -2 22 1 22 9 0 8 10 12 25 11 16 -2 25 2
25 11 0 7 6 11 14 8 21 -8 56 14 56 34 0 14 2 15 10 2 8 -12 10 -12 15 2 4 9
13 14 21 11 16 -6 64 87 64 125 0 12 4 22 8 22 4 0 7 19 7 43 -1 23 2 47 7 54
6 7 7 17 3 22 -3 6 1 24 10 41 8 16 15 32 15 35 1 14 13 34 19 30 4 -2 14 5
21 16 8 10 22 19 32 19 9 0 20 5 23 10 4 6 11 8 16 4 5 -3 18 5 29 18 11 13
19 18 20 13 0 -6 -4 -16 -10 -23 -7 -9 -7 -9 2 -2 7 6 21 10 32 10 20 0 20 0
0 -15 -10 -8 -14 -15 -8 -15 7 0 14 -8 17 -18 2 -12 17 -22 36 -25 18 -4 30
-11 26 -16 -3 -6 8 -40 23 -78 41 -97 52 -134 52 -181 0 -22 4 -43 9 -46 5 -4
12 -29 16 -56 4 -28 10 -50 15 -50 8 0 24 -55 23 -77 0 -7 3 -13 9 -13 5 0 7
-14 4 -32 -3 -18 2 -44 10 -60 8 -15 14 -30 14 -33 0 -3 7 -19 15 -36 9 -17
14 -36 12 -42 -2 -7 0 -22 4 -34 5 -13 5 -23 1 -23 -5 0 -7 -14 -6 -32 1 -17
-5 -42 -13 -54 -8 -13 -12 -28 -9 -33 4 -5 2 -12 -3 -15 -5 -3 -7 -14 -4 -24
2 -10 -3 -24 -11 -31 -9 -8 -16 -19 -16 -26 0 -7 -11 -23 -25 -36 -13 -13 -25
-31 -25 -40 0 -8 -6 -23 -13 -33 -13 -17 -17 -15 -63 31 -87 87 -143 89 -248
9 -46 -35 -84 -111 -88 -176 -3 -43 -2 -46 36 -64 38 -18 44 -19 110 -4 39 8
78 17 86 19 8 2 24 20 35 39 15 26 31 38 60 45 22 6 46 14 53 19 19 12 25 1
18 -29 -5 -20 -13 -25 -39 -26 -17 -1 -41 -2 -52 -3 -11 -1 -20 -8 -20 -16 0
-8 6 -14 14 -12 20 4 52 -8 46 -18 -3 -5 0 -21 7 -36 10 -22 10 -28 0 -32 -6
-2 -12 -8 -12 -13 0 -6 5 -7 11 -3 9 5 10 -1 4 -22 -9 -36 -10 -124 -1 -184 3
-25 4 -40 1 -34 -9 17 -117 -6 -190 -40 -136 -63 -198 -96 -207 -110 -9 -14
-168 -15 -168 -1 0 6 -7 2 -14 -7 -7 -10 -18 -18 -25 -18 -6 0 -11 -5 -11 -10
0 -6 -18 -29 -41 -51 -22 -21 -37 -44 -34 -49 3 -6 1 -10 -4 -10 -6 0 -11 -8
-11 -18 0 -10 -6 -24 -12 -31 -11 -11 -9 -13 10 -8 23 5 30 -7 11 -19 -8 -5
-6 -10 5 -16 9 -5 15 -12 12 -16 -2 -4 2 -12 8 -18 17 -16 112 28 121 55 5 15
18 21 63 26 31 4 64 9 72 12 8 4 18 5 23 5 4 -1 7 4 7 12 0 9 7 12 20 9 11 -3
20 0 20 6 0 6 5 11 11 11 6 0 8 -7 5 -17 -6 -14 -4 -14 14 2 17 15 23 16 29 6
6 -9 11 -10 15 -2 10 16 133 5 169 -15 20 -11 31 -74 13 -71 -5 1 -12 -6 -14
-17 -2 -11 0 -16 7 -12 7 5 8 1 4 -10 -4 -12 -8 -14 -11 -5 -3 9 -9 8 -22 -4
-10 -9 -32 -18 -49 -20 -17 -2 -38 -11 -47 -20 -8 -8 -20 -15 -25 -15 -5 0 -9
-5 -9 -11 0 -5 5 -7 10 -4 6 3 10 4 10 0 0 -3 -11 -10 -24 -15 -16 -6 -25 -19
-28 -39 -5 -33 1 -38 21 -18 10 10 10 7 0 -15 -6 -15 -15 -25 -20 -23 -4 3
-11 0 -15 -6 -5 -8 1 -10 20 -7 26 5 35 -5 16 -17 -5 -3 -10 -11 -10 -16 0 -6
5 -7 11 -3 7 4 9 0 5 -14 -4 -13 -1 -22 9 -26 9 -3 14 -10 11 -14 -3 -5 6 -7
19 -4 20 3 24 1 19 -12 -8 -21 5 -20 22 2 9 11 13 12 14 4 0 -9 5 -10 18 -3
19 10 47 9 58 -1 3 -4 15 -5 27 -3 16 3 28 -6 45 -32 12 -20 20 -38 17 -41 -3
-3 -5 0 -5 6 0 7 -3 12 -7 12 -5 0 -8 -11 -8 -24 0 -13 3 -22 8 -19 4 2 7 -5
7 -16 0 -11 -5 -23 -12 -27 -8 -5 -9 -2 -5 9 8 22 -7 22 -24 0 -10 -11 -10
-14 -1 -9 7 4 12 2 12 -6 -1 -23 -24 -53 -45 -56 -16 -3 -18 -1 -7 9 6 7 12
20 12 28 0 22 -38 -21 -55 -64 -15 -33 -35 -55 -35 -36 0 5 5 12 10 14 6 3 5
4 -2 3 -7 -1 -14 -15 -16 -29 -2 -15 -8 -25 -13 -22 -5 4 -12 -1 -15 -9 -3 -9
-11 -16 -18 -16 -6 0 -17 -9 -24 -21 -11 -17 -21 -20 -57 -16 -33 3 -46 0 -50
-12 -5 -13 -7 -13 -15 -1 -8 12 -10 12 -16 -3 -4 -12 -10 -14 -18 -8 -7 6 -17
6 -26 1 -9 -5 -19 -5 -27 2 -9 7 -14 6 -19 -5 -4 -12 -23 -15 -90 -15 -46 0
-84 4 -84 8 0 4 -15 7 -32 6 -24 -1 -32 3 -30 13 2 11 0 12 -11 2 -17 -14 -61
0 -74 23 -10 17 -91 49 -104 40 -5 -3 -7 1 -4 8 4 9 -5 14 -26 15 -17 1 -36 6
-43 11 -6 5 -23 12 -38 16 -16 3 -28 11 -28 16 0 6 -16 10 -35 10 -21 0 -37 6
-43 16 -6 11 -17 15 -30 12 -12 -4 -26 0 -33 8 -6 8 -20 14 -31 14 -11 0 -28
10 -38 22 -15 19 -20 20 -33 10 -13 -11 -20 -9 -42 16 -18 20 -33 28 -46 25
-11 -3 -21 1 -25 11 -3 9 -14 16 -23 16 -10 0 -26 8 -37 18 -24 23 -53 35 -81
35 -13 0 -23 4 -23 10 0 13 -40 47 -56 47 -7 0 -20 9 -28 21 -9 13 -19 18 -27
14 -7 -5 -10 -4 -6 1 3 5 -3 28 -14 49 -11 23 -17 29 -13 15 3 -14 8 -40 11
-57 3 -18 9 -33 13 -33 5 0 6 -10 3 -22 -4 -19 -3 -20 6 -8 9 13 11 13 11 -2
0 -9 8 -22 18 -27 9 -6 11 -11 5 -11 -7 0 -13 -7 -13 -16 0 -9 6 -14 12 -12 7
3 18 -6 25 -20 16 -30 16 -35 1 -26 -7 4 -6 -1 3 -12 9 -10 20 -29 23 -41 4
-13 14 -23 22 -23 8 0 14 -4 14 -8 0 -11 105 -115 114 -113 4 1 19 -13 34 -31
39 -47 72 -77 93 -83 10 -3 16 -11 14 -18 -5 -13 38 -67 52 -67 17 0 45 -43
40 -62 -5 -16 -2 -19 15 -15 16 5 18 3 9 -6 -16 -16 -14 -30 3 -24 11 4 14 -2
11 -29 -2 -24 1 -34 11 -34 20 0 17 -18 -3 -23 -14 -4 -12 -5 5 -6 12 0 22 -6
22 -12 0 -6 -6 -9 -14 -6 -9 4 -13 -2 -12 -17 1 -19 6 -22 33 -20 l32 2 -26
-24 c-15 -14 -33 -22 -40 -19 -8 2 -11 0 -8 -5 9 -15 43 -12 52 5 6 10 13 11
23 5 13 -9 13 -10 0 -10 -17 0 -50 -34 -50 -50 0 -6 8 -10 18 -10 9 0 24 -5
32 -11 22 -15 -47 0 -82 17 -35 18 -38 1 -5 -27 19 -16 20 -20 7 -29 -13 -8
-12 -12 8 -25 12 -9 22 -23 22 -32 0 -13 -6 -11 -27 9 -27 24 -53 28 -53 6 0
-6 6 -8 14 -5 25 10 26 -6 1 -28 -13 -13 -21 -26 -18 -29 4 -3 -2 -6 -11 -6
-12 0 -16 -5 -13 -14 3 -8 1 -17 -6 -19 -7 -2 -9 -8 -5 -12 4 -4 18 -1 32 8
13 9 27 13 30 10 3 -4 -5 -14 -20 -23 -14 -10 -26 -21 -26 -26 -1 -5 -9 -8
-18 -6 -10 2 -20 -5 -24 -14 -5 -13 -2 -15 15 -11 29 8 49 -2 42 -19 -4 -10
-14 -13 -37 -9 -27 5 -32 3 -33 -14 -1 -13 3 -18 13 -14 8 3 14 -1 14 -11 0
-9 -4 -16 -10 -16 -5 0 -9 -3 -9 -8 4 -22 -3 -34 -16 -28 -9 3 -15 0 -15 -10
0 -8 -7 -17 -15 -20 -8 -4 -15 -14 -15 -23 0 -24 -30 -60 -36 -43 -3 6 -12 12
-20 12 -8 0 -14 5 -14 11 0 5 -4 8 -10 4 -17 -10 -108 74 -166 155 -78 108
-212 327 -263 428 -28 57 -64 116 -80 132 -15 16 -45 54 -66 85 -42 64 -42 87
-5 195 28 82 38 157 44 340 4 91 11 243 18 337 l11 172 22 -22 c23 -23 104
-71 110 -65 2 2 -5 39 -16 83 -20 76 -50 148 -67 159 -5 3 -35 -8 -68 -25 -88
-45 -123 -38 -195 40 -78 84 -120 170 -172 351 -25 85 -56 180 -68 210 -20 49
-23 72 -24 200 0 123 3 151 19 183 33 67 95 83 186 47 62 -24 78 -25 102 -4
14 14 20 14 33 4 10 -8 15 -9 15 -2 0 24 28 -1 49 -43 14 -28 27 -86 37 -162
24 -185 39 -183 49 7 2 52 12 154 21 225 10 79 18 221 20 361 2 216 6 278 20
329 6 21 58 137 76 170 17 30 77 143 108 203 15 30 29 49 32 42 2 -6 22 12 45
40 23 28 45 50 49 50 4 -1 11 4 15 12 7 10 9 10 9 1 0 -7 7 -13 15 -13 8 0 15
5 15 12 0 7 7 5 18 -5 14 -13 20 -13 35 -3 9 7 17 18 17 24 0 17 21 26 30 12
6 -9 13 -4 26 16 10 16 20 31 22 34 2 3 10 -4 19 -15 14 -19 15 -18 8 13 -5
25 -3 32 9 32 9 0 16 7 16 16 0 8 -4 12 -10 9 -6 -3 -7 1 -4 9 7 19 25 21 43
4 10 -11 11 -10 7 2 -16 51 -16 68 1 66 10 0 18 5 19 12 1 6 2 15 3 20 1 4 15
22 31 41 17 18 30 40 30 47 0 8 7 14 16 14 10 0 14 6 11 14 -4 10 7 23 29 37
24 15 32 24 24 29 -9 5 -6 10 9 15 11 3 21 11 21 16 0 6 23 33 50 61 28 28 50
55 50 59 0 5 5 9 10 9 6 0 28 11 50 25 26 16 40 21 40 13 0 -7 8 -4 18 8 17
21 49 35 107 50 43 10 46 11 93 12 30 2 42 6 42 17 0 8 4 15 9 15 6 0 8 -9 6
-21z m513 -203 c-7 -8 -16 -12 -21 -9 -11 7 2 23 19 23 12 0 12 -2 2 -14z m32
-16 c0 -5 -4 -10 -10 -10 -5 0 -10 5 -10 10 0 6 5 10 10 10 6 0 10 -4 10 -10z
m-6 -41 c-3 -5 -10 -7 -15 -3 -5 3 -7 10 -3 15 3 5 10 7 15 3 5 -3 7 -10 3
-15z m-10 -380 c-9 -15 -20 -10 -20 10 0 15 3 17 13 9 7 -6 10 -14 7 -19z
m-64 -20 c0 -11 -4 -17 -10 -14 -5 3 -10 13 -10 21 0 8 5 14 10 14 6 0 10 -9
10 -21z m-1360 -19 c0 -5 -5 -10 -11 -10 -5 0 -7 5 -4 10 3 6 8 10 11 10 2 0
4 -4 4 -10z m1513 -41 c-6 -6 -7 3 -4 23 4 28 6 29 9 9 2 -13 0 -27 -5 -32z
m207 -99 c0 -5 -7 -7 -15 -4 -8 4 -15 8 -15 10 0 2 7 4 15 4 8 0 15 -4 15 -10z
m-1150 -60 c-8 -5 -19 -10 -25 -10 -5 0 -3 5 5 10 8 5 20 10 25 10 6 0 3 -5
-5 -10z m-150 -27 c0 -9 -52 -35 -58 -29 -2 3 9 11 25 20 33 18 33 18 33 9z
m80 -3 c0 -5 -7 -10 -16 -10 -8 0 -12 5 -9 10 3 6 10 10 16 10 5 0 9 -4 9 -10z
m-56 -15 c-4 -8 -13 -15 -22 -15 -13 0 -12 3 4 15 24 18 25 18 18 0z m76 -5
c-8 -6 -26 -9 -40 -8 l-25 1 25 4 c14 3 29 9 34 14 5 5 12 6 15 3 3 -3 -1 -9
-9 -14z m-170 -17 c0 -5 -11 -13 -25 -20 -29 -13 -31 -11 -9 11 16 17 34 21
34 9z m-89 -53 c-19 -16 -47 -34 -63 -39 -45 -16 -23 8 28 30 24 11 46 24 49
29 3 6 9 10 13 10 4 -1 -8 -14 -27 -30z m159 19 c0 -5 -11 -9 -24 -9 -13 0
-31 -3 -40 -6 -9 -3 -16 -1 -16 4 0 11 16 16 57 18 13 1 23 -2 23 -7z m606
-644 c-3 -8 -10 -15 -15 -15 -7 0 -6 10 1 26 12 26 25 16 14 -11z m587 -1093
c-2 -6 4 -9 12 -6 8 4 15 1 15 -5 0 -6 5 -10 11 -8 15 3 42 -81 35 -109 -4
-13 -14 -25 -24 -26 -59 -5 -57 -6 -58 57 -1 33 -3 62 -4 65 -8 17 -6 50 4 47
6 -3 10 -9 9 -15z m-768 -582 c-3 -5 -10 -10 -16 -10 -5 0 -9 5 -9 10 0 6 7
10 16 10 8 0 12 -4 9 -10z m-434 -1170 c10 0 19 -4 19 -10 0 -13 -43 4 -46 19
-1 6 0 7 3 1 2 -5 13 -10 24 -10z m-45 -84 c3 -23 -20 -15 -24 8 -3 11 1 17 9
14 7 -2 13 -12 15 -22z m-36 -106 c0 -5 -4 -10 -10 -10 -5 0 -10 5 -10 10 0 6
5 10 10 10 6 0 10 -4 10 -10z m-80 -200 c0 -5 -7 -10 -15 -10 -8 0 -15 5 -15
10 0 6 7 10 15 10 8 0 15 -4 15 -10z m-43 -47 c0 -19 -27 -44 -39 -37 -12 8
-10 34 3 34 5 0 7 -6 4 -12 -3 -7 2 -3 11 10 20 27 21 27 21 5z m4588 -2660
c23 -60 96 -133 157 -158 27 -11 48 -23 48 -26 0 -4 -21 -14 -47 -24 -60 -23
-133 -96 -158 -157 -11 -27 -23 -48 -26 -48 -4 0 -14 21 -24 47 -23 60 -96
133 -157 158 -27 11 -48 23 -48 26 0 4 21 14 47 24 60 23 133 96 158 157 11
27 23 48 26 48 4 0 14 -21 24 -47z"/>
<path d="M4612 8169 c2 -7 10 -15 17 -17 8 -3 12 1 9 9 -2 7 -10 15 -17 17 -8
3 -12 -1 -9 -9z"/>
<path d="M4680 7979 c0 -5 5 -7 10 -4 6 3 10 8 10 11 0 2 -4 4 -10 4 -5 0 -10
-5 -10 -11z"/>
<path d="M4682 7910 c0 -14 2 -19 5 -12 2 6 2 18 0 25 -3 6 -5 1 -5 -13z"/>
<path d="M4683 7815 c-12 -14 -18 -27 -14 -30 11 -6 44 31 40 44 -2 5 -14 -1
-26 -14z"/>
<path d="M4620 7729 c0 -5 5 -7 10 -4 6 3 10 8 10 11 0 2 -4 4 -10 4 -5 0 -10
-5 -10 -11z"/>
<path d="M4615 7690 c3 -5 8 -10 11 -10 2 0 4 5 4 10 0 6 -5 10 -11 10 -5 0
-7 -4 -4 -10z"/>
<path d="M4547 7563 c-4 -3 -7 -11 -7 -17 0 -6 5 -5 12 2 6 6 9 14 7 17 -3 3
-9 2 -12 -2z"/>
<path d="M4435 7460 c-3 -5 -1 -10 4 -10 6 0 11 5 11 10 0 6 -2 10 -4 10 -3 0
-8 -4 -11 -10z"/>
<path d="M3816 7232 c-3 -6 -1 -14 5 -17 14 -9 20 -2 10 14 -6 8 -11 9 -15 3z"/>
<path d="M2426 6281 c-25 -28 -30 -88 -16 -183 11 -79 38 -168 51 -168 3 0 16
53 28 118 29 151 29 150 54 163 19 11 25 7 54 -26 18 -21 35 -36 37 -34 7 6
-14 29 -82 92 -68 61 -97 70 -126 38z"/>
<path d="M4322 6027 c-10 -29 -16 -33 -37 -29 -18 3 -25 0 -25 -12 0 -9 -5
-16 -11 -16 -5 0 -7 -4 -4 -10 3 -5 0 -10 -7 -10 -7 0 -19 -9 -26 -20 -10 -16
-10 -20 0 -20 8 0 9 -3 3 -8 -14 -10 -17 -72 -4 -104 14 -34 16 -34 40 -6 11
11 22 18 25 15 14 -14 44 42 44 82 0 23 5 41 11 41 6 0 9 6 6 14 -3 7 1 26 9
41 10 20 11 32 4 39 -5 5 -10 15 -10 21 0 5 5 3 11 -5 9 -12 10 -12 7 -1 -8
27 -24 21 -36 -12z"/>
<path d="M2690 6009 c-80 -66 -100 -85 -100 -95 0 -6 -6 -17 -14 -23 -28 -23
6 -150 45 -172 15 -8 19 -6 19 8 0 21 31 51 46 46 5 -2 26 14 45 34 30 32 38
50 48 108 13 74 8 107 -14 99 -7 -3 -16 -1 -20 5 -9 16 -27 13 -55 -10z"/>
<path d="M4160 5843 c0 -15 19 -37 26 -31 3 4 -1 14 -10 23 -9 9 -16 13 -16 8z"/>
<path d="M4180 5729 c0 -5 5 -7 10 -4 6 3 10 8 10 11 0 2 -4 4 -10 4 -5 0 -10
-5 -10 -11z"/>
<path d="M4180 5259 c0 -5 5 -7 10 -4 6 3 10 8 10 11 0 2 -4 4 -10 4 -5 0 -10
-5 -10 -11z"/>
<path d="M3420 3374 c0 -8 5 -12 10 -9 6 4 8 11 5 16 -9 14 -15 11 -15 -7z"/>
</g>
</svg>
